<?xml version="1.0" standalone="no"?>
<!DOCTYPE svg PUBLIC "-//W3C//DTD SVG 20010904//EN"
 "http://www.w3.org/TR/2001/REC-SVG-20010904/DTD/svg10.dtd">
<svg version="1.0" xmlns="http://www.w3.org/2000/svg"
 width="3000.000000pt" height="3000.000000pt" viewBox="0 0 3000.000000 3000.000000"
 preserveAspectRatio="xMidYMid meet">
<metadata>
Created by potrace 1.14, written by Peter Selinger 2001-2017
</metadata>
<g transform="translate(0.000000,3000.000000) scale(0.100000,-0.100000)"
fill="#000000" stroke="none">
<path d="M13430 15400 l0 -8580 -5460 0 -5460 0 0 -680 0 -680 7028 2 7027 3
3 8578 2 8577 5460 0 5460 0 0 680 0 680 -7030 0 -7030 0 0 -8580z m1780 -680
l0 -7900 -210 0 -210 0 0 7900 0 7900 210 0 210 0 0 -7900z"/>
<path d="M18060 14720 l0 -5640 585 0 585 0 0 5055 0 5055 1304 0 c1303 0
1439 -3 1666 -36 605 -89 1213 -343 1650 -690 115 -91 299 -278 389 -394 374
-482 559 -1089 561 -1832 1 -1036 -354 -1814 -1065 -2330 -389 -282 -952 -509
-1474 -593 -260 -42 -332 -45 -1476 -45 l-1100 0 550 -550 c303 -302 1266
-1245 2140 -2094 l1590 -1545 858 0 c472 -1 857 3 855 7 -1 5 -713 698 -1580
1541 -868 842 -1578 1535 -1578 1540 0 4 53 15 118 25 610 91 1305 402 1907
855 748 561 1208 1324 1379 2286 76 427 95 942 51 1405 -66 712 -271 1320
-619 1835 -320 474 -779 874 -1351 1178 -606 321 -1183 504 -1865 589 -69 8
-634 12 -2087 15 l-1993 4 0 -5641z"/>
<path d="M4000 14725 l0 -5465 313 0 c173 0 436 3 585 7 l272 6 0 4879 0 4878
3385 0 3385 0 0 580 0 580 -3970 0 -3970 0 0 -5465z"/>
<path d="M6010 12830 l0 -570 2965 0 2965 0 0 570 0 570 -2965 0 -2965 0 0
-570z"/>
</g>
</svg>
