<svg width="39" height="41" viewBox="0 0 39 41" fill="none" xmlns="http://www.w3.org/2000/svg">
    <g clip-path="url(#clip0_380_1129)">
        <path d="M13.0859 31.5469C13.0859 31.7031 12.9062 31.8281 12.6797 31.8281C12.4219 31.8516 12.2422 31.7266 12.2422 31.5469C12.2422 31.3906 12.4219 31.2656 12.6484 31.2656C12.8828 31.2422 13.0859 31.3672 13.0859 31.5469ZM10.6562 31.1953C10.6016 31.3516 10.7578 31.5312 10.9922 31.5781C11.1953 31.6562 11.4297 31.5781 11.4766 31.4219C11.5234 31.2656 11.375 31.0859 11.1406 31.0156C10.9375 30.9609 10.7109 31.0391 10.6562 31.1953ZM14.1094 31.0625C13.8828 31.1172 13.7266 31.2656 13.75 31.4453C13.7734 31.6016 13.9766 31.7031 14.2109 31.6484C14.4375 31.5938 14.5938 31.4453 14.5703 31.2891C14.5469 31.1406 14.3359 31.0391 14.1094 31.0625ZM19.25 1.125C8.41406 1.125 0.125 9.35156 0.125 20.1875C0.125 28.8516 5.57812 36.2656 13.3672 38.875C14.3672 39.0547 14.7188 38.4375 14.7188 37.9297C14.7188 37.4453 14.6953 34.7734 14.6953 33.1328C14.6953 33.1328 9.22656 34.3047 8.07812 30.8047C8.07812 30.8047 7.1875 28.5312 5.90625 27.9453C5.90625 27.9453 4.11719 26.7188 6.03125 26.7422C6.03125 26.7422 7.97656 26.8984 9.04688 28.7578C10.7578 31.7734 13.625 30.9062 14.7422 30.3906C14.9219 29.1406 15.4297 28.2734 15.9922 27.7578C11.625 27.2734 7.21875 26.6406 7.21875 19.125C7.21875 16.9766 7.8125 15.8984 9.0625 14.5234C8.85938 14.0156 8.19531 11.9219 9.26562 9.21875C10.8984 8.71094 14.6562 11.3281 14.6562 11.3281C16.2188 10.8906 17.8984 10.6641 19.5625 10.6641C21.2266 10.6641 22.9062 10.8906 24.4688 11.3281C24.4688 11.3281 28.2266 8.70312 29.8594 9.21875C30.9297 11.9297 30.2656 14.0156 30.0625 14.5234C31.3125 15.9062 32.0781 16.9844 32.0781 19.125C32.0781 26.6641 27.4766 27.2656 23.1094 27.7578C23.8281 28.375 24.4375 29.5469 24.4375 31.3828C24.4375 34.0156 24.4141 37.2734 24.4141 37.9141C24.4141 38.4219 24.7734 39.0391 25.7656 38.8594C33.5781 36.2656 38.875 28.8516 38.875 20.1875C38.875 9.35156 30.0859 1.125 19.25 1.125ZM7.71875 28.0703C7.61719 28.1484 7.64062 28.3281 7.77344 28.4766C7.89844 28.6016 8.07812 28.6562 8.17969 28.5547C8.28125 28.4766 8.25781 28.2969 8.125 28.1484C8 28.0234 7.82031 27.9688 7.71875 28.0703ZM6.875 27.4375C6.82031 27.5391 6.89844 27.6641 7.05469 27.7422C7.17969 27.8203 7.33594 27.7969 7.39062 27.6875C7.44531 27.5859 7.36719 27.4609 7.21094 27.3828C7.05469 27.3359 6.92969 27.3594 6.875 27.4375ZM9.40625 30.2188C9.28125 30.3203 9.32812 30.5547 9.50781 30.7031C9.6875 30.8828 9.91406 30.9062 10.0156 30.7812C10.1172 30.6797 10.0703 30.4453 9.91406 30.2969C9.74219 30.1172 9.50781 30.0938 9.40625 30.2188ZM8.51562 29.0703C8.39062 29.1484 8.39062 29.3516 8.51562 29.5312C8.64062 29.7109 8.85156 29.7891 8.95312 29.7109C9.07812 29.6094 9.07812 29.4062 8.95312 29.2266C8.84375 29.0469 8.64062 28.9688 8.51562 29.0703Z"
              fill="currentColor"/>
    </g>
    <defs>
        <clipPath id="clip0_380_1129">
            <rect width="38.75" height="40" fill="white" transform="translate(0.125 0.5)"/>
        </clipPath>
    </defs>
</svg>
