<svg width="36" height="41" viewBox="0 0 36 41" fill="none" xmlns="http://www.w3.org/2000/svg">
    <g clip-path="url(#clip0_380_1130)">
        <path d="M33.375 3H3.36719C1.99219 3 0.875 4.13281 0.875 5.52344V35.4766C0.875 36.8672 1.99219 38 3.36719 38H33.375C34.75 38 35.875 36.8672 35.875 35.4766V5.52344C35.875 4.13281 34.75 3 33.375 3ZM11.4531 33H6.26562V16.2969H11.4609V33H11.4531ZM8.85937 14.0156C7.19531 14.0156 5.85156 12.6641 5.85156 11.0078C5.85156 9.35156 7.19531 8 8.85937 8C10.5156 8 11.8672 9.35156 11.8672 11.0078C11.8672 12.6719 10.5234 14.0156 8.85937 14.0156V14.0156ZM30.8984 33H25.7109V24.875C25.7109 22.9375 25.6719 20.4453 23.0156 20.4453C20.3125 20.4453 19.8984 22.5547 19.8984 24.7344V33H14.7109V16.2969H19.6875V18.5781H19.7578C20.4531 17.2656 22.1484 15.8828 24.6719 15.8828C29.9219 15.8828 30.8984 19.3437 30.8984 23.8437V33V33Z"
              fill="currentColor"/>
    </g>
    <defs>
        <clipPath id="clip0_380_1130">
            <rect width="35" height="40" fill="white" transform="translate(0.875 0.5)"/>
        </clipPath>
    </defs>
</svg>
