<svg width="108" height="80" viewBox="0 0 108 80" fill="currentColor" xmlns="http://www.w3.org/2000/svg">
    <path d="M67.1709 64.3495H72.2769V20.7162H82.9592C85.3106 20.7162 87.6621 21.2549 89.8791 22.3996C94.1789 24.487 96.3288 28.1904 96.3288 33.5099C96.3288 38.7621 94.1789 42.4655 89.8791 44.6202C87.6621 45.6976 85.3106 46.3036 82.9592 46.3036H74.158L79.0625 51.0844L92.7009 64.3495H100.158L86.3856 51.0171C89.1401 50.6804 91.9618 49.5357 94.7836 47.583C99.2177 44.4182 101.502 39.7047 101.502 33.5099C101.502 26.103 98.4115 20.9182 92.2306 17.9554C89.1401 16.4067 86.0496 15.666 82.9592 15.666H67.1709V64.3495Z"
    />
    <path d="M107.924 0V5.86179H53.0414V74.1381H47.4984L47.1973 0H107.924Z"/>
    <path d="M0 80V74.1381H54.8829V5.86182H60.7275V80H0Z"/>
    <path d="M15.1444 50.6324V45.6852H40.7338V50.6324H15.1444ZM6.44141 63.586H11.5073V21.4053H40.7338V16.3931H6.44141V63.586Z"
    />
</svg>
